<?xml version="1.0" encoding="UTF-8"?>
<svg width="20px" height="21px" viewBox="0 0 20 21" version="1.1" xmlns="http://www.w3.org/2000/svg" xmlns:xlink="http://www.w3.org/1999/xlink">
    <!-- Generator: Sketch 52.2 (67145) - http://www.bohemiancoding.com/sketch -->
    <title>icons8-search</title>
    <desc>Created with Sketch.</desc>
    <g id="Symbols" stroke="none" stroke-width="1" fill="none" fill-rule="evenodd">
        <g id="Header" transform="translate(-1120.000000, -20.000000)" fill="#FFFFFF" fill-rule="nonzero">
            <g id="Group-3">
                <g id="icons8-search" transform="translate(1120.000000, 20.000000)">
                    <path d="M7.92425346,0 C3.55244003,0 0,3.56788542 0,7.95870674 C0,12.3495281 3.55244003,15.9174135 7.92425346,15.9174135 C9.65404248,15.9174135 11.2527312,15.3578171 12.5564457,14.410526 L18.6890022,20.5551157 L20,19.2384179 L13.9402768,13.1377181 C15.1311,11.7442132 15.8485069,9.93558207 15.8485069,7.95870674 C15.8485069,3.56788542 12.2960669,0 7.92425346,0 Z M7.92425346,0.936318439 C11.791697,0.936318439 14.9162418,4.07444821 14.9162418,7.95870674 C14.9162418,11.8429653 11.791697,14.981095 7.92425346,14.981095 C4.05680991,14.981095 0.932265113,11.8429653 0.932265113,7.95870674 C0.932265113,4.07444821 4.05680991,0.936318439 7.92425346,0.936318439 Z" id="Shape"></path>
                </g>
            </g>
        </g>
    </g>
</svg>