<?xml version="1.0" encoding="UTF-8"?>
<svg width="25px" height="24px" viewBox="0 0 25 24" version="1.1" xmlns="http://www.w3.org/2000/svg" xmlns:xlink="http://www.w3.org/1999/xlink">
    <!-- Generator: Sketch 63.1 (92452) - https://sketch.com -->
    <title>TE-Icon</title>
    <desc>Created with Sketch.</desc>
    <g id="Page-1" stroke="none" stroke-width="1" fill="none" fill-rule="evenodd">
        <path d="M14.5988487,0.00681732503 C14.7418719,-0.00401612573 14.8864048,0.01192359 15.0241373,0.0516919159 C15.2996024,0.131228463 15.550038,0.306127178 15.7156141,0.554491296 L15.7156141,0.554491296 L17.0710307,2.37599171 L19.3881914,2.47084032 L19.3677941,2.47084032 C19.9741409,2.47084032 20.4659455,2.96573023 20.5467717,3.53151247 L20.5467717,3.53151247 L20.5457519,3.51927394 L20.9231063,5.78952047 L22.8833099,6.91036517 C23.4378661,7.18764171 23.6098493,7.85239817 23.4564812,8.38918679 L23.4564812,8.38918679 L23.454441,8.39836562 L22.7415472,10.5819226 L23.9725388,12.5217289 L24.0131939,12.5792083 C24.3250211,13.0683641 24.215762,13.7084719 23.7563252,14.0760213 L23.7563252,14.0760213 L23.7930405,14.0433852 L22.1367601,15.6527511 L22.3254373,17.9739916 L22.3340804,18.0784768 C22.3513971,18.6552697 21.943542,19.1160677 21.4595618,19.2773946 L21.4595618,19.2773946 L21.447323,19.2814739 L19.2158322,19.8995195 L18.3132408,22.0382016 L18.3061021,22.05248 C18.0690332,22.5266173 17.489482,22.9050375 16.879294,22.7306982 L16.879294,22.7306982 L16.9149895,22.7398771 L14.6437235,22.2666541 L12.8466997,23.7332374 L12.8844354,23.6985618 C12.6607984,23.9221982 12.3783659,24.0035048 12.1093288,24.0035048 C11.8402917,24.0035048 11.5800893,23.9093876 11.3586993,23.7617937 L11.3586993,23.7617937 L11.338302,23.7485357 L9.52190076,22.2666541 L7.24145538,22.7419167 L7.09736975,22.7583946 C6.60192644,22.7896534 6.10549787,22.5423914 5.86054196,22.05248 L5.86054196,22.05248 L5.85340275,22.0382016 L4.95081188,19.8995195 L2.71932065,19.2814739 L2.70708212,19.2773946 C2.18587287,19.1036579 1.75295039,18.5826057 1.84426615,17.9433951 L1.84426615,17.9433951 L1.84018664,17.9739916 L2.02988375,15.6527511 L0.370543752,14.0413456 C-0.0356261376,13.6341556 -0.130927837,12.9572643 0.200224321,12.460536 L0.200224321,12.460536 L1.42101716,10.5350081 L0.665288263,8.36063049 C0.47453949,7.78838396 0.731773413,7.24248649 1.14055095,6.91546475 L1.14055095,6.91546475 L1.1752268,6.88792775 L3.29657109,5.73138702 L3.67290572,3.4672602 L3.671,3.4765048 L3.6999581,3.3402823 C3.83013683,2.85078613 4.25081675,2.55097974 4.65782023,2.44811233 L4.76825356,2.42494581 L4.80394958,2.41882657 L7.15170619,2.37089234 L8.5030435,0.554491296 C8.84858164,0.0361840406 9.49843464,-0.0632171142 9.97166648,0.0945267266 L9.97166648,0.0945267266 L10.0012431,0.103705659 L12.1093288,1.11032428 L14.1806992,0.12206342 C14.3143113,0.0552573409 14.4558254,0.0176507236 14.5988487,0.00681732503 Z M14.7330703,1.00095771 L14.6977767,1.00323721 C14.6776567,1.00722612 14.6565654,1.01517396 14.6335244,1.02669439 L14.6335244,1.02669439 L14.6284253,1.02873412 L12.1093288,2.23116919 L9.64530582,1.05525095 C9.4977344,1.00732157 9.41521633,1.009266 9.34444202,1.11542371 L9.34444202,1.11542371 L9.33730281,1.12664232 L7.66776438,3.37241164 L4.92735464,3.42850484 C4.78335962,3.45509149 4.68790983,3.51360372 4.67238498,3.62228151 L4.67238498,3.62228151 L4.67238498,3.62738088 L4.21242067,6.38308853 L1.76777536,7.717088 C1.66285046,7.81055926 1.60491658,7.9815524 1.62295284,8.03732927 L1.62295284,8.03732927 L1.62295284,8.03834908 L2.53676269,10.6645326 L1.0457024,13.016369 C0.956053263,13.1513528 0.965390938,13.2053052 1.08343783,13.3233522 L1.08343783,13.3233522 L3.07729751,15.2590787 L2.84782518,18.07088 L2.84476554,18.0861782 C2.83174532,18.17732 2.92092825,18.280756 3.02528377,18.3166703 L3.02528377,18.3166703 L5.69124224,19.0550615 L6.76721261,21.6016945 C6.81459182,21.6928906 6.97702335,21.7601648 7.06501697,21.7454968 L7.06501697,21.7454968 L9.78808887,21.1784455 L11.9288106,22.9234552 C12.0128931,22.9772755 12.0671735,22.9917868 12.1093288,22.9917868 C12.1535958,22.9917868 12.1842685,22.9688606 12.1695014,22.9836277 L12.1695014,22.9836277 L12.1878595,22.9652701 L14.3785552,21.1784455 L17.1393622,21.7526361 L17.1567006,21.7577356 C17.2769726,21.7920991 17.3238437,21.7523379 17.399431,21.6016945 L17.399431,21.6016945 L18.4743815,19.0550615 L21.1403403,18.3176901 C21.2450733,18.2820536 21.3339129,18.1775701 21.3208585,18.0861782 L21.3208585,18.0861782 L21.3188188,18.07088 L21.0893466,15.2590787 L23.0883056,13.3182526 L23.1056435,13.3009147 L23.1250209,13.2856165 C23.1549573,13.2616784 23.1693214,13.1326813 23.1505178,13.1091781 L23.1505178,13.1091781 L23.13318,13.0877605 L21.6329407,10.7216457 L22.4845384,8.11076041 C22.4845384,8.11076041 22.4845384,8.1097406 22.4845384,8.1097406 L22.5025941,8.03460467 C22.5282471,7.89871929 22.4930638,7.8457763 22.4315045,7.8149962 L22.4315045,7.8149962 L22.4182465,7.8088768 L20.0052172,6.4289832 L19.5462726,3.68041449 C19.5226629,3.50902956 19.4924947,3.4815385 19.3677941,3.4815385 L19.3677941,3.4815385 L19.3575949,3.4815385 L16.546814,3.36731227 L14.8813548,1.12664232 L14.8742156,1.11542371 C14.8092735,1.01801053 14.7581372,0.991270474 14.6977767,1.00323721 Z M14.9413591,6.53244227 C15.5708818,5.9029196 16.5693851,5.8636821 17.1513026,6.44559964 C17.7332202,7.02751718 17.6939827,8.02602049 17.06446,8.65554316 L17.06446,8.65554316 L14.2532894,11.4667137 L15.7923509,15.8767579 L15.90675,16.1825558 L14.0764986,18.0128073 L11.2746449,14.4453582 L10.5688617,15.1511415 L10.8176691,16.715816 L10.8648167,16.9782873 L9.23792654,18.6051775 L8.91342891,18.089281 L7.58136033,16.0155419 L5.50762122,14.6834733 L4.99172475,14.3589757 L6.61861494,12.7320855 L6.88108623,12.7792331 L8.44576077,13.0280406 L9.15154401,12.3222573 L5.58409497,9.52040369 L7.41434644,7.69015223 L7.72014438,7.80455133 L12.1301885,9.34361281 Z M16.3857072,7.21119502 C16.1852844,7.01077218 15.8658783,7.02332366 15.6490594,7.24014257 L15.6490594,7.24014257 L12.3354669,10.5537351 L12.0296689,10.439336 L7.61962477,8.9002745 L7.15309008,9.36680919 L10.7205391,12.1686628 L8.73477609,14.1544259 L8.4723048,14.1072783 L6.90763026,13.8584708 L6.63249442,14.1336066 L8.26864638,15.1955621 L8.35891814,15.2379841 L8.40134019,15.3282559 L9.46329562,16.9644078 L9.73843146,16.689272 L9.48962398,15.1245975 L9.44247639,14.8621262 L11.4282394,12.8763631 L14.2300931,16.4438122 L14.6966278,15.9772775 L13.1575663,11.5672333 L13.0431672,11.2614354 L16.3567597,7.94784286 C16.5735786,7.73102396 16.5861301,7.41161787 16.3857072,7.21119502 Z" id="TE-Icon" fill="#FFFFFF" fill-rule="nonzero"></path>
    </g>
</svg>