<?xml version="1.0" encoding="UTF-8"?>
<svg width="21px" height="20px" viewBox="0 0 21 20" version="1.1" xmlns="http://www.w3.org/2000/svg" xmlns:xlink="http://www.w3.org/1999/xlink">
    <!-- Generator: Sketch 52.4 (67378) - http://www.bohemiancoding.com/sketch -->
    <title>icons8-address</title>
    <desc>Created with Sketch.</desc>
    <g id="Page-1" stroke="none" stroke-width="1" fill="none" fill-rule="evenodd">
        <g id="DT-06-09-Contact-UsAddress" transform="translate(-545.000000, -295.000000)" fill="#000000" fill-rule="nonzero">
            <g id="icons8-address" transform="translate(545.000000, 295.000000)">
                <path d="M10.4347826,0 C7.31827435,0 4.7826087,2.53566565 4.7826087,5.65217391 C4.7826087,7.86005435 6.13281261,10.5859374 7.45244565,12.8226904 C8.77038043,15.059443 10.0883152,16.7866848 10.0883152,16.7866848 L10.4347826,17.2367526 L10.78125,16.7866848 C10.78125,16.7866848 12.0991848,15.059443 13.4171196,12.8226904 C14.7367526,10.5859374 16.0869565,7.86005435 16.0869565,5.65217391 C16.0869565,2.53566565 13.5512909,0 10.4347826,0 Z M10.4347826,0.869565217 C13.0808426,0.869565217 15.2173913,3.00611435 15.2173913,5.65217391 C15.2173913,7.48471478 13.9588996,10.1936143 12.669837,12.3811143 C11.55231,14.2747961 10.7150135,15.3651496 10.4347826,15.7387909 C10.1545517,15.3651496 9.31725565,14.2747961 8.19972826,12.3811143 C6.91066565,10.1936143 5.65217391,7.48471478 5.65217391,5.65217391 C5.65217391,3.00611435 7.78872304,0.869565217 10.4347826,0.869565217 Z M10.4347826,3.47826087 C9.23913043,3.47826087 8.26086957,4.45652174 8.26086957,5.65217391 C8.26086957,6.84782609 9.23913043,7.82608696 10.4347826,7.82608696 C11.6304348,7.82608696 12.6086957,6.84782609 12.6086957,5.65217391 C12.6086957,4.45652174 11.6304348,3.47826087 10.4347826,3.47826087 Z M10.4347826,4.34782609 C11.1599865,4.34782609 11.7391304,4.92697 11.7391304,5.65217391 C11.7391304,6.37737783 11.1599865,6.95652174 10.4347826,6.95652174 C9.7095787,6.95652174 9.13043478,6.37737783 9.13043478,5.65217391 C9.13043478,4.92697 9.7095787,4.34782609 10.4347826,4.34782609 Z M2.73777174,13.0434783 L0.251358696,20 L20.6182065,20 L18.1317935,13.0434783 L14.8046874,13.0434783 C14.6348504,13.3423913 14.4650135,13.6328126 14.2951765,13.9130435 L17.5203804,13.9130435 L19.3817935,19.1304348 L1.48777174,19.1304348 L3.34918478,13.9130435 L6.5743887,13.9130435 C6.40455174,13.6328126 6.23471478,13.3423913 6.06487783,13.0434783 L2.73777174,13.0434783 Z" id="Shape"></path>
            </g>
        </g>
    </g>
</svg>