<?xml version="1.0" encoding="UTF-8"?>
<svg width="20px" height="20px" viewBox="0 0 20 20" version="1.1" xmlns="http://www.w3.org/2000/svg" xmlns:xlink="http://www.w3.org/1999/xlink">
    <title>Featured</title>
    <g id="Page-1" stroke="none" stroke-width="1" fill="none" fill-rule="evenodd">
        <g id="UI-Elements" transform="translate(-3393.000000, -2138.000000)" fill="#FFFFFF" fill-rule="nonzero">
            <g id="Featured" transform="translate(3393.000000, 2138.000000)">
                <path d="M0,0 L0,20 L20,20 L20,0 L0,0 Z M1.66666667,1.66666667 L18.3333333,1.66666667 L18.3333333,18.3333333 L1.66666667,18.3333333 L1.66666667,1.66666667 Z M10,3.671875 L8.07291667,7.99479167 L3.33333333,8.48958333 L6.92708333,11.6666667 L5.91145833,16.328125 L10,13.90625 L14.0885417,16.328125 L13.0729167,11.6666667 L16.6666667,8.48958333 L11.9270833,7.99479167 L10,3.671875 Z M10,7.76041667 L10.8333333,9.58333333 L11.8229167,9.66145833 L12.8385417,9.73958333 L11.328125,11.09375 L11.5104167,12.0052083 L11.7447917,12.9947917 L10.8333333,12.5 L10,12.0052083 L8.33333333,12.9947917 L8.59375,12.0052083 L8.75,11.09375 L7.23958333,9.73958333 L8.25520833,9.66145833 L9.24479167,9.58333333 L9.66145833,8.671875 L10,7.76041667 Z" id="Shape"></path>
            </g>
        </g>
    </g>
</svg>