<?xml version="1.0" encoding="UTF-8"?>
<svg width="31px" height="27px" viewBox="0 0 31 27" version="1.1" xmlns="http://www.w3.org/2000/svg" xmlns:xlink="http://www.w3.org/1999/xlink">
    <!-- Generator: Sketch 52.1 (67048) - http://www.bohemiancoding.com/sketch -->
    <title>icons8-two_tikets</title>
    <desc>Created with Sketch.</desc>
    <g id="Page-1" stroke="none" stroke-width="1" fill="none" fill-rule="evenodd">
        <g id="DT-03-01-MyAccount" transform="translate(-716.000000, -178.000000)" fill="#9B9B9B" fill-rule="nonzero">
            <g id="icons8-two_tikets" transform="translate(716.000000, 178.000000)">
                <path d="M21.5369708,0 C21.2021562,0 20.8802183,0.120877453 20.630395,0.370347437 L18.8996593,2.09863548 L17.8488555,1.02874288 C17.5990323,0.779272897 17.256491,0.658395444 16.9216757,0.658395444 C16.5868611,0.658395444 16.2649232,0.779272897 16.0150999,1.02874288 L0.376666926,16.6450598 C-0.125555642,17.1465721 -0.125555642,17.9747098 0.376666926,18.4762221 L3.15820639,21.2332531 C3.37197301,21.4467174 3.70163695,21.4904388 3.96176223,21.3361274 C4.44595614,21.0455077 5.06665135,21.1020882 5.48645794,21.5213011 C5.90626452,21.940514 5.96292518,22.5603314 5.6718939,23.0438405 C5.51736393,23.3035979 5.56114726,23.6327957 5.77491388,23.84626 L8.53584935,26.6238658 C9.03807191,27.1253781 9.86738242,27.1253781 10.369605,26.6238658 L12.0797367,24.8955777 L13.1511445,25.9654703 C13.653367,26.4669826 14.4826775,26.4669826 14.9849001,25.9654703 L30.6233331,10.3491534 C31.1255556,9.84764106 31.1255556,9.01950337 30.6233331,8.51799105 L27.8417936,5.76096013 C27.628027,5.54749582 27.2983631,5.50377441 27.0382378,5.65808585 C26.5540439,5.94870554 25.9333486,5.89212502 25.5135421,5.47291213 C25.0937355,5.05369924 25.0370748,4.43388182 25.3281061,3.95037266 C25.4826361,3.69061525 25.4388527,3.36141753 25.2250861,3.14795322 L22.4641507,0.370347437 C22.2143274,0.120877453 21.8717861,0 21.5369708,0 Z M21.5369708,1.31679089 L21.5575748,1.31679089 L24.0712623,3.84749837 C23.7931084,4.73221725 23.8858264,5.69923556 24.5863622,6.39878072 C25.2868981,7.09832588 26.2552859,7.19091274 27.1412577,6.91315216 L29.6755493,9.42328479 L29.6755493,9.44385965 L14.0783243,25.0190269 L14.0577203,25.0190269 L13.0275205,23.9697091 L24.0712623,12.9415854 L24.2773023,13.147334 C24.5322769,13.4096638 24.9520835,13.4122355 25.2147841,13.1576214 C25.4774854,12.9030074 25.4800607,12.4837952 25.2250861,12.2214654 L25.0190462,12.0157169 L26.008038,11.0075488 C26.5076852,10.5060365 26.5102605,9.67789882 26.008038,9.1763865 L23.2264985,6.41935558 C23.0127319,6.20589127 22.6830679,6.16216986 22.4229427,6.31648129 C21.9387488,6.60710099 21.3180535,6.55052046 20.898247,6.13130757 C20.4784404,5.71209468 20.4217797,5.09227726 20.712811,4.60876811 C20.867341,4.34901069 20.8235576,4.01981297 20.609791,3.80634866 L19.8474432,3.02450407 L21.5369708,1.31679089 Z M16.9216757,1.97518633 L16.9422797,1.97518633 L18.2403315,3.27140236 C18.3047188,3.49001006 18.4747021,3.65975296 18.6936194,3.72404923 L19.4559672,4.50589382 C19.1778133,5.3906127 19.2705313,6.357631 19.9710671,7.05717616 C20.671603,7.75672132 21.6399908,7.84930818 22.5259626,7.5715476 L25.0602542,10.1022551 L23.7209944,11.4601957 C23.7055417,11.4730548 23.6926638,11.4859146 23.6797864,11.5013454 L23.6179744,11.5424951 C23.5870684,11.5733574 23.5587378,11.6093637 23.5355584,11.6453694 L11.8324887,23.2907388 C11.6212981,23.3601791 11.4590414,23.5299214 11.3998048,23.7433857 L9.46302917,25.6774223 L6.92873766,23.1467148 C7.2068916,22.2619959 7.11417362,21.2949776 6.41363776,20.5954325 C5.71310189,19.8958873 4.74471408,19.8033005 3.85874225,20.081061 L1.32445074,17.5709284 L1.32445074,17.5503536 L13.6044324,5.28773841 L14.1607403,5.49348698 L14.6552362,5.14371441 L14.6758402,4.54704353 L14.5316122,4.36186982 L16.9216757,1.97518633 Z M15.376376,5.57578642 L14.9024841,5.90498414 L14.8818801,6.50165501 L15.0055041,6.68682873 L15.479396,7.16005045 L16.0357039,7.34522417 L16.5095958,7.01602645 L16.5301998,6.41935558 L16.4065758,6.23418186 L15.9326839,5.76096013 L15.376376,5.57578642 Z M17.2513397,7.44809846 L16.7568438,7.77729618 L16.7362398,8.37396705 L16.8804677,8.55914077 L17.3337556,9.01178764 L17.8900635,9.21753621 L18.3845594,8.86776363 L18.4051634,8.27109276 L18.2609355,8.08591904 L17.8076476,7.63327218 L17.2513397,7.44809846 Z M19.1056993,9.29983564 L18.6318074,9.62903337 L18.6112034,10.2257042 L18.7348274,10.410878 L19.2087193,10.8840997 L19.7650272,11.0692734 L20.2389191,10.7400757 L20.2595231,10.1434048 L20.1358991,9.95823109 L19.6620072,9.48500936 L19.1056993,9.29983564 Z M20.9806629,11.1721477 L20.486167,11.5013454 L20.465563,12.0980163 L20.609791,12.28319 L21.0630789,12.7564117 L21.6193868,12.9415854 L22.1138827,12.5918129 L22.1344867,12.0157169 L22.0108627,11.8099683 L21.5369708,11.3573214 L20.9806629,11.1721477 Z" id="Shape"></path>
            </g>
        </g>
    </g>
</svg>