<?xml version="1.0" encoding="UTF-8"?>
<svg width="21px" height="26px" viewBox="0 0 21 26" version="1.1" xmlns="http://www.w3.org/2000/svg" xmlns:xlink="http://www.w3.org/1999/xlink">
    <!-- Generator: Sketch 52.1 (67048) - http://www.bohemiancoding.com/sketch -->
    <title>icons8-invoice</title>
    <desc>Created with Sketch.</desc>
    <g id="Page-1" stroke="none" stroke-width="1" fill="none" fill-rule="evenodd">
        <g id="DT-03-01-MyAccount" transform="translate(-488.000000, -179.000000)" fill="#9B9B9B" fill-rule="nonzero">
            <g id="icons8-invoice" transform="translate(488.000000, 179.000000)">
                <path d="M0,0 L0,26 L0.552631579,26 L21,26 L21,0 L0,0 Z M1.10526316,1.13043478 L19.8947368,1.13043478 L19.8947368,24.8695652 L1.10526316,24.8695652 L1.10526316,1.13043478 Z M3.86842105,5.65217391 L3.86842105,6.7826087 L17.1315789,6.7826087 L17.1315789,5.65217391 L3.86842105,5.65217391 Z M4.41241776,9.03575061 C4.26923414,9.03837677 4.13263697,9.09774287 4.03140426,9.20134178 C4.02776406,9.20460509 4.02416594,9.20791718 4.02061082,9.21127717 C4.0184342,9.21346677 4.01627537,9.21567477 4.01413453,9.21790096 C3.89479953,9.34585133 3.8408813,9.52354441 3.86842105,9.69811474 L3.86842105,12.905061 C3.85855711,12.9660996 3.85855711,13.0283804 3.86842105,13.0894191 L3.86842105,16.2963653 C3.85855711,16.357404 3.85855711,16.4196848 3.86842105,16.4807234 L3.86842105,18.6521739 C3.86695829,18.7500872 3.8903901,18.8467097 3.93642071,18.9325749 C3.83606275,19.1085493 3.83604927,19.3261419 3.93638541,19.5021293 C4.03672156,19.6781168 4.22188388,19.7852711 4.42105263,19.7826087 L6.53875397,19.7826087 C6.59843345,19.7926973 6.65932744,19.7926973 6.71900692,19.7826087 L13.7229645,19.7826087 C13.782644,19.7926973 13.843538,19.7926973 13.9032174,19.7826087 L16.5789474,19.7826087 C16.7784522,19.7855106 16.9639982,19.6782077 17.0644079,19.5018625 C17.1648177,19.3255173 17.1645009,19.1075102 17.0635793,18.931471 C17.1094286,18.8459325 17.1328546,18.7497144 17.1315789,18.6521739 L17.1315789,16.4862433 C17.1414429,16.4252047 17.1414429,16.3629239 17.1315789,16.3018853 L17.1315789,13.094939 C17.1414429,13.0339004 17.1414429,12.9716196 17.1315789,12.9105809 L17.1315789,9.70363465 C17.1622439,9.5191146 17.1016197,9.33103333 16.969675,9.20134178 C16.9693158,9.20097332 16.968956,9.20060536 16.9685957,9.20023791 C16.9675209,9.19912929 16.9664416,9.19802522 16.9653579,9.19692574 C16.9639266,9.19544579 16.9624873,9.19397394 16.9610402,9.19251026 C16.8560179,9.0897424 16.7156419,9.03342362 16.5703125,9.03575061 C16.5435405,9.03634407 16.516846,9.03892676 16.4904401,9.04347826 L4.50632203,9.04347826 C4.47529269,9.03817362 4.44387717,9.03558834 4.41241776,9.03575061 Z M4.97368421,10.173913 L6.07894737,10.173913 L6.07894737,12.4347826 L4.97368421,12.4347826 L4.97368421,10.173913 Z M7.18421053,10.173913 L13.2631579,10.173913 L13.2631579,12.4347826 L7.18421053,12.4347826 L7.18421053,10.173913 Z M14.3684211,10.173913 L16.0263158,10.173913 L16.0263158,12.4347826 L14.3684211,12.4347826 L14.3684211,10.173913 Z M4.97368421,13.5652174 L6.07894737,13.5652174 L6.07894737,15.826087 L4.97368421,15.826087 L4.97368421,13.5652174 Z M7.18421053,13.5652174 L13.2631579,13.5652174 L13.2631579,15.826087 L7.18421053,15.826087 L7.18421053,13.5652174 Z M14.3684211,13.5652174 L16.0263158,13.5652174 L16.0263158,15.826087 L14.3684211,15.826087 L14.3684211,13.5652174 Z M4.97368421,16.9565217 L6.07894737,16.9565217 L6.07894737,18.6521739 L4.97368421,18.6521739 L4.97368421,16.9565217 Z M7.18421053,16.9565217 L13.2631579,16.9565217 L13.2631579,18.6521739 L7.18421053,18.6521739 L7.18421053,16.9565217 Z M14.3684211,16.9565217 L16.0263158,16.9565217 L16.0263158,18.6521739 L14.3684211,18.6521739 L14.3684211,16.9565217 Z M10.5,21.4782609 L10.5,22.6086957 L17.1315789,22.6086957 L17.1315789,21.4782609 L10.5,21.4782609 Z" id="Shape"></path>
            </g>
        </g>
    </g>
</svg>