<?xml version="1.0" encoding="UTF-8"?>
<svg width="22px" height="20px" viewBox="0 0 22 20" version="1.1" xmlns="http://www.w3.org/2000/svg" xmlns:xlink="http://www.w3.org/1999/xlink">
    <!-- Generator: Sketch 52.2 (67145) - http://www.bohemiancoding.com/sketch -->
    <title>icons8-airplane_take_off</title>
    <desc>Created with Sketch.</desc>
    <g id="Page-1" stroke="none" stroke-width="1" fill="none" fill-rule="evenodd">
        <g id="DT-06-05-ConcourseMaps" transform="translate(-275.000000, -300.000000)" fill="#000000" fill-rule="nonzero">
            <g id="icons8-airplane_take_off" transform="translate(275.000000, 300.000000)">
                <path d="M19.078125,0.025 C18.3967638,-0.0281248 17.5987727,0.0843752 16.7455357,0.475 C16.7455357,0.475 5.10714286,5.7656248 4.71428571,5.925 C4.32142857,6.0843752 4.09430843,5.9156248 3.78125,5.675 C3.23186364,5.1937504 2.34793507,4.6406248 2.11160714,4.4 C1.63895129,4.0812504 0.623047071,4.2343752 0.859375,4.875 C1.17243343,5.5156248 2.04408521,7.525 2.35714286,8.325 C2.90652921,9.4437504 5.4171315,9.125 9.89508929,7.125 C10.2940852,6.9468752 10.8189172,6.7 11.2700893,6.5 L10.140625,12.725 C9.98409579,13.2843752 10.1314172,13.4312504 10.2879464,13.35 L11,13.05 C11.3130584,12.8906248 11.7949221,12.4093752 12.03125,11.85 L15.2723214,4.675 C18.4857703,3.1562504 21.4137833,1.6312504 21.2142857,1.125 C21.0178571,0.675 20.2137281,0.1156248 19.078125,0.025 Z M6.43303571,0.85 C6.13839286,0.85 5.84375,0.8687504 5.64732143,0.95 L5.03348214,1.275 C4.79715421,1.3562504 4.88002271,1.5312504 5.35267857,1.85 L8.00446429,3.525 L11,2.15 L7.31696429,0.95 C7.040737,0.8687504 6.72767857,0.85 6.43303571,0.85 Z M1.49776786,17.6 C1.06501136,17.6406248 0.745814693,18.0343752 0.785714286,18.475 C0.825613879,18.9156248 1.21233279,19.2406248 1.64508929,19.2 L20.5022321,19.2 C20.7845982,19.2031248 21.0485495,19.0531248 21.1928011,18.8031248 C21.3339846,18.5531248 21.3339846,18.2468752 21.1928011,17.9968752 C21.0485495,17.7468752 20.7845982,17.5968752 20.5022321,17.6 L1.64508929,17.6 C1.62053571,17.6 1.59598214,17.6 1.57142857,17.6 C1.546875,17.6 1.52232143,17.6 1.49776786,17.6 Z" id="Shape"></path>
            </g>
        </g>
    </g>
</svg>