<?xml version="1.0" encoding="UTF-8"?>
<svg width="21px" height="20px" viewBox="0 0 21 20" version="1.1" xmlns="http://www.w3.org/2000/svg" xmlns:xlink="http://www.w3.org/1999/xlink">
    <!-- Generator: Sketch 52.5 (67469) - http://www.bohemiancoding.com/sketch -->
    <title>icons8-new-red</title>
    <desc>Created with Sketch.</desc>
    <g id="DDF-Consolidated-v4-2" stroke="none" stroke-width="1" fill="none" fill-rule="evenodd">
        <g id="UI-Elements" transform="translate(-2846.000000, -2444.000000)" fill="#D40808" fill-rule="nonzero">
            <g id="icons8-new-red" transform="translate(2846.000000, 2444.000000)">
                <path d="M12.6834239,0.0169836957 C12.5096991,0.00421491304 12.3313917,0.035260087 12.1662704,0.114639957 L10.4347826,0.938349174 L8.70244565,0.113790783 L8.70159652,0.113790783 C8.26190522,-0.0960337391 7.72993522,0.0360539565 7.43716043,0.423743217 L7.43716043,0.424592391 L6.28566565,1.96076765 L4.36735739,2.03634513 L4.36650826,2.03634513 C3.88066757,2.05610287 3.47086643,2.42031252 3.39334239,2.90081522 L3.0867867,4.79534652 L1.42408287,5.75492522 C1.00245887,5.99763391 0.807239957,6.50969522 0.961277174,6.97180696 L1.57184104,8.79330826 L0.544327435,10.4144022 C0.283923913,10.8251796 0.348913087,11.3697383 0.701426609,11.7068613 L2.086447,13.0349865 L1.930197,14.9481996 C1.89065526,15.4336861 2.20249204,15.8839052 2.66813861,16.0198709 L2.66898778,16.0198709 L4.51341696,16.5514604 L5.26409652,18.3186139 L5.26409652,18.3194635 C5.45501391,18.765423 5.93961391,19.0270083 6.42068609,18.9232339 L8.29908304,18.538553 L9.78345783,19.7537365 L9.78345783,19.7528874 C9.97183913,19.9075504 10.2051004,19.986413 10.4356317,19.986413 C10.6670543,19.986413 10.8990796,19.9071365 11.0869565,19.7528874 L12.5713313,18.5377039 L14.4497283,18.9223843 C14.9298639,19.0253765 15.4156287,18.7656283 15.6063178,18.3177648 L16.3569974,16.5514604 L18.2005774,16.0198709 L18.2014265,16.0198709 C18.6683591,15.884687 18.9796409,15.4329613 18.9402174,14.9481996 L18.7839674,13.0341374 L20.1689878,11.7060122 C20.5210035,11.368837 20.5875096,10.8245983 20.3269361,10.413553 L19.2994226,8.79245913 L19.9099865,6.97095783 L19.9099865,6.9701087 C20.0622052,6.50906174 19.8691691,5.99699565 19.4471809,5.75407609 L17.7836278,4.79449739 L17.4779213,2.89911687 L17.4779213,2.89826765 C17.3983896,2.41975248 16.9889352,2.05610222 16.503057,2.03634513 L14.5847487,1.96076765 L13.4332539,0.425441565 C13.2868917,0.230291565 13.0798961,0.0995228696 12.8549591,0.0441576087 C12.7987252,0.0303163043 12.7413322,0.0212399565 12.6834239,0.0169836957 Z M8.27700391,0.855978261 C8.29790043,0.858127783 8.31896174,0.864230174 8.33899478,0.87381113 L10.4347826,1.87075409 L12.5305704,0.87381113 L12.53142,0.87381113 C12.610227,0.835925478 12.70477,0.858398087 12.7590013,0.930706522 L14.1508152,2.78702443 L16.4690896,2.87788722 C16.560603,2.88160896 16.6312991,2.94478465 16.6465691,3.03668478 L17.0159648,5.3243887 L19.0268343,6.48437478 C19.104583,6.52913174 19.1390383,6.61865304 19.1109035,6.70516304 L18.3738113,8.90455174 L19.6153191,10.86447 C19.6632987,10.9401557 19.6521861,11.0351283 19.586447,11.0979961 L17.9118548,12.7038043 L18.1003735,15.0161343 C18.1079083,15.1087643 18.0557713,15.1849122 17.9670517,15.2105978 L15.7379417,15.8534309 L14.8318613,17.9882813 C14.7955917,18.0734613 14.7097013,18.1174017 14.6263587,18.0995243 L14.6246604,18.0986752 L12.3479961,17.632473 L10.5528191,19.1015626 C10.5172191,19.130793 10.4781222,19.1440217 10.4356317,19.1440217 C10.3922491,19.1440217 10.3526922,19.1312248 10.3175952,19.1024117 L8.52241826,17.6333222 L6.24575391,18.0995243 L6.24320652,18.0995243 C6.15993087,18.1174896 6.07546174,18.0736461 6.03855304,17.9874322 L6.03855304,17.9891304 L5.13247304,15.8534309 L2.90421196,15.211447 C2.81594243,15.1856939 2.76262613,15.1080191 2.77004078,15.0169835 L2.95855978,12.7038043 L1.28396739,11.0988452 L1.28396739,11.0979961 C1.21822009,11.0351396 1.20680296,10.9414983 1.25509513,10.8653191 L2.49745243,8.90540087 L1.75951087,6.70516304 C1.73093957,6.6194487 1.76520435,6.5303413 1.84358017,6.48522435 L1.84442935,6.48522435 L3.85444974,5.32523783 L4.22469435,3.03498643 C4.23930304,2.94442848 4.30930391,2.88191222 4.40047565,2.87788722 L6.71875,2.78702443 L8.10971478,0.931555696 C8.15152087,0.87619613 8.21431522,0.849529783 8.27700391,0.855978261 Z M4.7826087,8.26086957 L4.7826087,11.7391304 L5.39996609,11.7391304 L5.39996609,9.16864826 L7.12720783,11.7391304 L7.82608696,11.7391304 L7.82608696,8.26086957 L7.20872957,8.26086957 L7.20872957,10.8313517 L5.48148783,8.26086957 L4.7826087,8.26086957 Z M8.69565217,8.26086957 L8.69565217,11.7391304 L11.3043478,11.7391304 L11.3043478,11.2092391 L9.31895391,11.2092391 L9.31895391,10.069633 L11.148947,10.069633 L11.148947,9.57880435 L9.31895391,9.57880435 L9.31895391,8.78991174 L11.3043478,8.78991174 L11.3043478,8.26086957 L8.69565217,8.26086957 Z M11.7391304,8.26086957 L12.68767,11.7391304 L13.3593748,11.7391304 L14.1499661,9.0922213 L14.9006452,11.7391304 L15.5332878,11.7391304 L16.5217391,8.26086957 L15.8500339,8.26086957 L15.1774796,10.9451426 L14.4658626,8.26086957 L13.7941574,8.26086957 L13.0434783,10.9451426 L12.371773,8.26086957 L11.7391304,8.26086957 Z" id="Shape"></path>
            </g>
        </g>
    </g>
</svg>