<?xml version="1.0" encoding="UTF-8"?>
<svg width="26px" height="26px" viewBox="0 0 26 26" version="1.1" xmlns="http://www.w3.org/2000/svg" xmlns:xlink="http://www.w3.org/1999/xlink">
    <!-- Generator: Sketch 52.1 (67048) - http://www.bohemiancoding.com/sketch -->
    <title>icons8-user_male_circle</title>
    <desc>Created with Sketch.</desc>
    <g id="Page-1" stroke="none" stroke-width="1" fill="none" fill-rule="evenodd">
        <g id="DT-03-01-MyAccount" transform="translate(-1180.000000, -179.000000)" fill="#9B9B9B" fill-rule="nonzero">
            <g id="icons8-user_male_circle" transform="translate(1180.000000, 179.000000)">
                <path d="M13,0 C5.832031,0 0,5.832031 0,13 C0,20.167969 5.832031,26 13,26 C20.167969,26 26,20.167969 26,13 C26,5.832031 20.167969,0 13,0 Z M13,2 C19.085938,2 24,6.914063 24,13 C24,19.085938 19.085938,24 13,24 C6.914063,24 2,19.085938 2,13 C2,6.914063 6.914063,2 13,2 Z M13,5 C10.25,5 8,7.25 8,10 C8,11.515625 8.707031,12.863281 9.78125,13.78125 C7.53125,14.949219 6,17.300781 6,20 L8,20 C8,17.226563 10.226563,15 13,15 C15.773438,15 18,17.226563 18,20 L20,20 C20,17.300781 18.46875,14.949219 16.21875,13.78125 C17.292969,12.863281 18,11.515625 18,10 C18,7.25 15.75,5 13,5 Z M13,7 C14.667969,7 16,8.332031 16,10 C16,11.667969 14.667969,13 13,13 C11.332031,13 10,11.667969 10,10 C10,8.332031 11.332031,7 13,7 Z" id="Shape"></path>
            </g>
        </g>
    </g>
</svg>