<?xml version="1.0" encoding="UTF-8"?>
<svg width="21px" height="20px" viewBox="0 0 21 20" version="1.1" xmlns="http://www.w3.org/2000/svg" xmlns:xlink="http://www.w3.org/1999/xlink">
    <!-- Generator: Sketch 52.2 (67145) - http://www.bohemiancoding.com/sketch -->
    <title>icons8-airplane_landing</title>
    <desc>Created with Sketch.</desc>
    <g id="Page-1" stroke="none" stroke-width="1" fill="none" fill-rule="evenodd">
        <g id="DT-06-05-ConcourseMaps" transform="translate(-548.000000, -297.000000)" fill="#9B9B9B" fill-rule="nonzero">
            <g id="icons8-airplane_landing" transform="translate(548.000000, 297.000000)">
                <path d="M3.046875,0.120192308 C2.9296875,0.147235385 2.82128925,0.23137 2.765625,0.384615385 C2.54003925,1.07572154 1.869141,3.07692308 1.5703125,3.84615385 C1.1953125,4.92187538 3.14648475,6.53245231 7.5703125,8.14903846 C7.942383,8.28125 8.4404295,8.45552923 8.859375,8.60576923 L4.0546875,12.1634615 C3.603516,12.4699523 3.52441425,12.6862985 3.75,12.7644231 L4.4296875,13.0048077 C4.8046875,13.1580531 5.47558575,13.0679085 6,12.8365385 L12.9140625,10.0240385 C16.1689455,11.1418269 19.239258,12.0973562 19.4296875,11.6105769 C19.6552732,10.8413462 18.9667972,8.92427923 16.640625,8.07692308 C16.640625,8.07692308 5.109375,3.85516846 4.734375,3.70192308 C4.43554725,3.54867769 4.34179725,3.22115385 4.265625,2.83653846 C4.1894535,2.14543308 4.06054725,1.14783692 3.984375,0.841346154 C3.92871075,0.438702308 3.3984375,0.0360576923 3.046875,0.120192308 Z M7.8046875,0.528846154 C7.69628925,0.567908462 7.69335975,0.763221538 7.8046875,1.22596154 L8.5546875,4.23076923 L11.625,5.3125 L9.75,1.92307692 C9.45117225,1.46033692 9,0.922476154 8.625,0.769230769 L7.9453125,0.528846154 C7.88964825,0.510817692 7.83984375,0.516826923 7.8046875,0.528846154 Z M14.625,10.9134615 C14.0859375,10.9134615 13.640625,11.3701923 13.640625,11.9230769 C13.640625,12.4759615 14.0859375,12.9326923 14.625,12.9326923 C15.1640625,12.9326923 15.609375,12.4759615 15.609375,11.9230769 C15.609375,11.3701923 15.1640625,10.9134615 14.625,10.9134615 Z M1.359375,17.6923077 C0.94628925,17.73137 0.64160175,18.1099762 0.6796875,18.5336538 C0.7177734,18.9573315 1.08691425,19.2698315 1.5,19.2307692 L19.5,19.2307692 C19.7695312,19.2337738 20.0214847,19.0895431 20.1591795,18.8491585 C20.2939455,18.6087738 20.2939455,18.3143031 20.1591795,18.0739185 C20.0214847,17.8335338 19.7695312,17.6893031 19.5,17.6923077 L1.5,17.6923077 C1.4765625,17.6923077 1.453125,17.6923077 1.4296875,17.6923077 C1.40625,17.6923077 1.3828125,17.6923077 1.359375,17.6923077 Z" id="Shape"></path>
            </g>
        </g>
    </g>
</svg>