<?xml version="1.0" encoding="UTF-8"?>
<svg width="21px" height="20px" viewBox="0 0 21 20" version="1.1" xmlns="http://www.w3.org/2000/svg" xmlns:xlink="http://www.w3.org/1999/xlink">
    <!-- Generator: Sketch 52.5 (67469) - http://www.bohemiancoding.com/sketch -->
    <title>icons8-discount-red</title>
    <desc>Created with Sketch.</desc>
    <g id="DDF-Consolidated-v4-2" stroke="none" stroke-width="1" fill="none" fill-rule="evenodd">
        <g id="UI-Elements" transform="translate(-2847.000000, -2547.000000)" fill="#D40808" fill-rule="nonzero">
            <g id="icons8-discount-red" transform="translate(2847.000000, 2547.000000)">
                <path d="M12.5076426,0.00594430435 C12.3885565,0.0149645652 12.270727,0.0462771304 12.159477,0.101902174 L10.4347826,0.924762217 L8.67951783,0.0866168696 L8.6548913,0.0789741739 C8.26086217,-0.0523687826 7.71977217,0.0303960435 7.43206522,0.461956522 L6.30689522,1.97435461 L4.35207217,2.0142663 L4.32235043,2.01936139 C3.92677043,2.0852913 3.48312752,2.381015 3.40947691,2.8965693 L3.41032609,2.88722826 L3.09697691,4.77241826 L1.33067257,5.73539391 L1.30180026,5.75832217 C0.961438,6.03061174 0.747256174,6.48514478 0.905230957,6.95906913 L0.906080174,6.96161696 L1.53532609,8.7720787 L0.518851913,10.3753396 C0.243123217,10.7889326 0.322474696,11.3525357 0.658967391,11.6890287 L0.660665739,11.6915761 L2.04228939,13.0332878 L1.88434104,14.9660326 L1.88773778,14.940557 C1.81170513,15.4727857 2.1721713,15.9066317 2.60614809,16.0512909 L2.6163383,16.0546874 L4.47435478,16.5692935 L5.22588304,18.3500339 L5.23182739,18.3619226 C5.45432783,18.806923 5.92601348,19.0114813 6.37398087,18.9368209 L6.38162348,18.9359713 L8.28040087,18.5402513 L9.79279913,19.774117 L9.80978261,19.7851561 C9.99411957,19.9080478 10.210773,19.986413 10.4347826,19.986413 C10.6587922,19.986413 10.8939552,19.9187143 11.080163,19.732507 L11.048743,19.7613791 L12.545007,18.5402513 L14.4361413,18.934273 L14.40642,18.9266304 C14.9144835,19.0717913 15.3970378,18.7567057 15.5944296,18.3619226 L15.6003735,18.3500339 L16.3519022,16.5692935 L18.2099183,16.0546874 L18.2201087,16.0512909 C18.6540857,15.9066317 19.0145517,15.4727857 18.9385191,14.940557 L18.9410665,14.9660326 L18.7839674,13.0332878 L20.1630435,11.6932743 L20.132473,11.7204483 C20.5423404,11.3925543 20.6174974,10.8041409 20.2853261,10.3889265 L20.3125,10.4262909 L19.2875339,8.8111413 L19.8811139,6.99303652 L19.8828126,6.98539391 C20.0105122,6.53844522 19.867313,5.98494609 19.4055704,5.75407609 L17.7734374,4.82082217 L17.4592391,2.9305367 L17.4600883,2.94072691 C17.3927896,2.46963713 16.9832961,2.05757474 16.4784309,2.05757474 L16.4954143,2.05757474 L14.5660665,1.97860052 L13.4375,0.461956522 C13.2996357,0.25516 13.0911143,0.109533304 12.8617526,0.0433084348 C12.7470717,0.0101959565 12.6267287,-0.003076 12.5076426,0.00594430435 Z M12.5900135,0.835597826 C12.6402717,0.825633913 12.6828496,0.847898609 12.7369226,0.929008174 L12.742867,0.938349174 L14.1295857,2.80400817 L16.4699387,2.89911687 L16.4784309,2.89911687 C16.5822609,2.89911687 16.60738,2.92200687 16.6270383,3.05961278 L16.6270383,3.06470787 L17.0091713,5.35326087 L19.0183426,6.50220783 L19.0293817,6.50730304 C19.0891809,6.53720304 19.1190878,6.59222043 19.0735396,6.75271739 C19.0735396,6.75271739 19.0735396,6.75356652 19.0735396,6.75356652 L18.36447,8.92747957 L19.6136209,10.8975883 L19.628057,10.9154213 C19.6437135,10.9349909 19.6317535,11.0423983 19.6068274,11.06233 L19.590693,11.0750678 L19.576257,11.0895039 L17.9118548,12.7055026 L18.1029213,15.0467052 L18.1046196,15.059443 C18.1154891,15.1355391 18.0415183,15.2225357 17.9543139,15.2522078 L15.7345448,15.8661687 L14.8395039,17.986583 C14.7765674,18.1120139 14.7375409,18.1451204 14.6373983,18.1165083 L14.6229617,18.1122622 L12.3242187,17.6341713 L10.50017,19.121943 L10.4848843,19.1372283 C10.49718,19.1249326 10.4716409,19.1440217 10.4347826,19.1440217 C10.3996826,19.1440217 10.354487,19.1319391 10.284477,19.0871265 L8.50203826,17.6341713 L6.23471478,18.1063178 C6.16144826,18.1185309 6.02620217,18.0625161 5.98675261,17.986583 L5.09086261,15.8661687 L2.87109374,15.2513587 C2.78420374,15.2214552 2.70994696,15.1353309 2.72078804,15.059443 L2.72333561,15.0467052 L2.91440217,12.7055026 L1.25424591,11.09375 C1.155956,10.99546 1.14818113,10.9505374 1.22027852,10.8423913 L1.22282609,10.8381452 L2.46433426,8.87992522 L1.7034647,6.69327435 L1.7034647,6.69242522 C1.68844709,6.64598348 1.73668483,6.5036087 1.82404891,6.4257813 L3.85954483,5.31504739 L4.24252696,3.02055026 L4.24252696,3.01630435 C4.25545348,2.92581548 4.33492826,2.87709617 4.45482348,2.85495922 L6.73658304,2.80825409 L8.12669826,0.938349174 L8.13264261,0.929008174 C8.19157174,0.840617609 8.26027913,0.838998609 8.38315217,0.878906261 L10.4347826,1.8580163 L12.5322691,0.856827435 L12.5365148,0.855129087 C12.5556996,0.845536783 12.5732609,0.83891913 12.5900135,0.835597826 Z M8.04347826,5.2173913 C7.34782609,5.2173913 6.82574739,5.60886565 6.60835609,6.26103957 C6.52139957,6.52190913 6.52173913,6.65217391 6.52173913,7.60869565 C6.52173913,8.56521739 6.56487783,8.73896043 6.60835609,8.95635174 C6.82574739,9.56504739 7.34782609,10 8.04347826,10 C8.73913043,10 9.26120913,9.60852565 9.47860043,8.95635174 C9.56555696,8.69548217 9.56521739,8.56521739 9.56521739,7.60869565 C9.56521739,6.65217391 9.5220787,6.47843087 9.47860043,6.26103957 C9.26120913,5.65234391 8.73913043,5.2173913 8.04347826,5.2173913 Z M12.7827787,5.2173913 C12.6523439,5.2173913 12.6088657,5.26120913 12.5653874,5.34816565 L7.43461261,14.6518343 C7.39113435,14.6953126 7.43512217,14.7826087 7.5220787,14.7826087 L8.13009522,14.7826087 C8.21705174,14.7826087 8.26069957,14.7387909 8.30417783,14.6518343 L13.4782609,5.34816565 C13.4782609,5.30468739 13.4786004,5.2173913 13.3916439,5.2173913 L12.7827787,5.2173913 Z M8.04347826,6.13026478 C8.34782609,6.13026478 8.56538739,6.30417783 8.65234391,6.56504739 C8.69582217,6.69548217 8.69565217,6.82591696 8.69565217,7.65200391 C8.69565217,8.43461261 8.65234391,8.56521739 8.65234391,8.69565217 C8.56538739,9 8.34782609,9.13043478 8.04347826,9.13043478 C7.73913043,9.13043478 7.52156913,8.95652174 7.43461261,8.69565217 C7.39113435,8.56521739 7.39130435,8.43461261 7.39130435,7.65200391 C7.39130435,6.82591696 7.43461261,6.69548217 7.43461261,6.56504739 C7.52156913,6.26069957 7.73913043,6.13026478 8.04347826,6.13026478 Z M12.826087,10 C12.1304348,10 11.6083561,10.3914743 11.3909648,11.0436483 C11.3040083,11.3045178 11.3043478,11.4347826 11.3043478,12.3913043 C11.3043478,13.3478261 11.3474865,13.5215691 11.3909648,13.7389604 C11.6083561,14.3476561 12.1304348,14.7826087 12.826087,14.7826087 C13.5217391,14.7826087 14.0438178,14.3911343 14.2612091,13.7389604 C14.3481657,13.4780909 14.3478261,13.3478261 14.3478261,12.3913043 C14.3478261,11.4347826 14.3046874,11.2610396 14.2612091,11.0436483 C14.0438178,10.4349526 13.5217391,10 12.826087,10 Z M12.826087,10.9128735 C13.1304348,10.9128735 13.3479961,11.0867865 13.4349526,11.3476561 C13.4784309,11.4780909 13.4782609,11.6085257 13.4782609,12.4346126 C13.4782609,13.2172213 13.4349526,13.3478261 13.4349526,13.4782609 C13.3479961,13.7826087 13.1304348,13.9130435 12.826087,13.9130435 C12.5217391,13.9130435 12.3041778,13.7391304 12.2172213,13.4782609 C12.173743,13.3478261 12.173913,13.2172213 12.173913,12.4346126 C12.173913,11.6085257 12.2172213,11.4780909 12.2172213,11.3476561 C12.3041778,11.0433083 12.5217391,10.9128735 12.826087,10.9128735 Z" id="Shape"></path>
            </g>
        </g>
    </g>
</svg>