<?xml version="1.0" encoding="UTF-8"?>
<svg width="22px" height="20px" viewBox="0 0 22 20" version="1.1" xmlns="http://www.w3.org/2000/svg" xmlns:xlink="http://www.w3.org/1999/xlink">
    <!-- Generator: Sketch 52.5 (67469) - http://www.bohemiancoding.com/sketch -->
    <title>icons8-send_mass_email</title>
    <desc>Created with Sketch.</desc>
    <g id="DDF-Consolidated-v4-2" stroke="none" stroke-width="1" fill="none" fill-rule="evenodd">
        <g id="DT-06-09-Contact-UsAddress" transform="translate(-276.000000, -298.000000)" fill="#9B9B9B" fill-rule="nonzero">
            <g id="icons8-send_mass_email" transform="translate(276.000000, 298.000000)">
                <path d="M0.00175382653,0 L0.00175382653,14.5454545 L0.897959184,14.5454545 L0.897959184,0.909090909 L20.2040816,0.909090909 L20.2040816,0 L0.00175382653,0 Z M1.79591837,1.81818182 L1.79591837,16.3636364 L12.122449,16.3636364 L12.122449,15.4545455 L2.69387755,15.4545455 L2.69387755,14.5365768 L8.44467486,9.93252864 C8.90943878,10.3444605 9.768814,11.1008523 9.87755102,11.1967332 C10.5615436,11.8004264 11.2876276,11.953125 11.7523915,11.953125 C12.2171558,11.953125 12.9432398,11.8004264 13.6289861,11.1967332 C14.1603956,10.7279832 19.3867987,6.11505682 20.6530612,4.99822455 L20.6530612,12.7272727 L21.5510204,13.6363636 L21.5510204,1.81818182 L1.79591837,1.81818182 Z M2.69387755,2.72727273 L20.6530612,2.72727273 L20.6530612,3.79261364 C20.1882973,4.20277 13.6096939,10.0088777 13.0397004,10.5113636 C12.536352,10.9552559 12.0242347,11.0440341 11.7523915,11.0440341 C11.4805487,11.0440341 10.9701851,10.95348 10.4668367,10.5113636 C9.8810589,9.99467318 2.89205984,3.828125 2.69387755,3.65234364 L2.69387755,2.72727273 Z M2.69387755,4.85795455 C3.45503849,5.530895 5.71045918,7.52130682 7.75542114,9.32528409 L2.69387755,13.3771309 L2.69387755,4.85795455 Z M17.9539221,12.2674005 C17.7715241,12.2691764 17.6084184,12.3810368 17.5382653,12.5514914 C17.469866,12.7237218 17.5102041,12.9190341 17.6417412,13.0486505 L20.0181762,15.4545455 L13.9183673,15.4545455 L13.9183673,16.3636364 L20.0181762,16.3636364 L17.6417412,18.7695314 C17.5242347,18.8831677 17.4768813,19.0536223 17.5189731,19.2116477 C17.5593112,19.3714491 17.6820793,19.4957386 17.8399235,19.5365768 C17.9960139,19.5791905 18.1643813,19.53125 18.2766262,19.4122868 L21.7369262,15.9090909 L18.2766262,12.405895 C18.1924425,12.3171164 18.0766902,12.2691764 17.9539221,12.2674005 Z" id="Shape"></path>
            </g>
        </g>
    </g>
</svg>