<?xml version="1.0" encoding="UTF-8"?>
<svg width="20px" height="20px" viewBox="0 0 20 20" version="1.1" xmlns="http://www.w3.org/2000/svg" xmlns:xlink="http://www.w3.org/1999/xlink">
    <!-- Generator: Sketch 52.3 (67297) - http://www.bohemiancoding.com/sketch -->
    <title>icons8-parallel_tasks</title>
    <desc>Created with Sketch.</desc>
    <g id="Page-1" stroke="none" stroke-width="1" fill="none" fill-rule="evenodd">
        <g id="DT-01-03-HomePage-Menu-Categories" transform="translate(-39.000000, -119.000000)" fill="#D40808" fill-rule="nonzero">
            <g id="icons8-parallel_tasks" transform="translate(39.000000, 119.000000)">
                <path d="M7.69230769,0 C6.85096154,0 6.15384615,0.697115385 6.15384615,1.53846154 L6.15384615,6.15384615 C6.15384615,6.99519231 6.85096154,7.69230769 7.69230769,7.69230769 L7.75841385,7.69230769 L3.14302923,12.3076923 L1.53846154,12.3076923 C0.697115385,12.3076923 0,13.0048077 0,13.8461538 L0,18.4615385 C0,19.3028846 0.697115385,20 1.53846154,20 L6.15384615,20 C6.99519231,20 7.69230769,19.3028846 7.69230769,18.4615385 L7.69230769,13.8461538 C7.69230769,13.0048077 6.99519231,12.3076923 6.15384615,12.3076923 L5.31850923,12.3076923 L9.93389385,7.69230769 L10.0661062,7.69230769 L14.6814908,12.3076923 L13.8461538,12.3076923 C13.0048077,12.3076923 12.3076923,13.0048077 12.3076923,13.8461538 L12.3076923,18.4615385 C12.3076923,19.3028846 13.0048077,20 13.8461538,20 L18.4615385,20 C19.3028846,20 20,19.3028846 20,18.4615385 L20,13.8461538 C20,13.0048077 19.3028846,12.3076923 18.4615385,12.3076923 L16.8569708,12.3076923 L12.2415862,7.69230769 L12.3076923,7.69230769 C13.1490385,7.69230769 13.8461538,6.99519231 13.8461538,6.15384615 L13.8461538,1.53846154 C13.8461538,0.697115385 13.1490385,0 12.3076923,0 L7.69230769,0 Z M7.69230769,1.53846154 L12.3076923,1.53846154 L12.3076923,6.15384615 L7.69230769,6.15384615 L7.69230769,1.53846154 Z M1.53846154,13.8461538 L6.15384615,13.8461538 L6.15384615,18.4615385 L1.53846154,18.4615385 L1.53846154,13.8461538 Z M13.8461538,13.8461538 L18.4615385,13.8461538 L18.4615385,18.4615385 L13.8461538,18.4615385 L13.8461538,13.8461538 Z" id="Shape"></path>
            </g>
        </g>
    </g>
</svg>