<svg height="20" viewBox="0 0 20 20" width="20" xmlns="http://www.w3.org/2000/svg"><path d="m7.69230769 0c-.84134615 0-1.53846154.69711539-1.53846154 1.53846154v4.61538461c0 .84134616.69711539 1.53846154 1.53846154 1.53846154h.06610616l-4.61538462 4.61538461h-1.60456769c-.84134615 0-1.53846154.6971154-1.53846154 1.5384615v4.6153847c0 .8413461.69711539 1.5384615 1.53846154 1.5384615h4.61538461c.84134616 0 1.53846154-.6971154 1.53846154-1.5384615v-4.6153847c0-.8413461-.69711538-1.5384615-1.53846154-1.5384615h-.83533692l4.61538462-4.61538461h.13221235l4.6153846 4.61538461h-.835337c-.8413461 0-1.5384615.6971154-1.5384615 1.5384615v4.6153847c0 .8413461.6971154 1.5384615 1.5384615 1.5384615h4.6153847c.8413461 0 1.5384615-.6971154 1.5384615-1.5384615v-4.6153847c0-.8413461-.6971154-1.5384615-1.5384615-1.5384615h-1.6045677l-4.6153846-4.61538461h.0661061c.8413462 0 1.5384615-.69711538 1.5384615-1.53846154v-4.61538461c0-.84134615-.6971153-1.53846154-1.5384615-1.53846154zm0 1.53846154h4.61538461v4.61538461h-4.61538461zm-6.15384615 12.30769226h4.61538461v4.6153847h-4.61538461zm12.30769226 0h4.6153847v4.6153847h-4.6153847z" fill="#fff" transform=""/></svg>