<svg height="20" viewBox="0 0 20 20" width="20" xmlns="http://www.w3.org/2000/svg"><path d="m9.85272017 0c-.61917682 0-1.20829538.24645862-1.6351067.68527703l-7.55034566 7.62219563c-.88969041.89566772-.88969041 2.36239934 0 3.25806704l4.62879548 4.6706984c.03606776.0360679.0781481.0601127.12022843.0961791l2.96363052 2.9995869h.00601103c.88969042.8896569 2.35647733.8896569 3.25217873.0060108l.0060126-.0060108 7.6705741-7.5500613h.006011c.4388334-.4328061.6792903-1.0219025.6792903-1.6350451v-4.74884356c0-1.26235178-1.0399756-2.30829899-2.3083859-2.30829899h-.769462v-.78145616c0-1.26836259-1.0399756-2.30829899-2.3083859-2.30829899zm0 1.53886599h4.76104603c.4328223 0 .7694619.33662694.7694619.769433v4.7428327c0 .20438141-.0841591.40275047-.2284332.54701916l-7.68259773 7.55006125c-.28854824.2885374-.70934699.2945482-1.01592988.0480896l-1.61106101-1.623022-.01202362.0120217-3.07183533-3.1077876c-.30658289-.3065714-.31259393-.78145618-.00601258-1.08802598l7.55635823-7.62219563c.13826155-.14426869.33663962-.2284262.54102719-.2284262zm3.16200863 1.538866c-.4268114 0-.769462.34263775-.769462.769433s.3426506.76943299.769462.76943299c.4268097 0 .7694619-.34263774.7694619-.76943299s-.3426522-.769433-.7694619-.769433zm3.9074233 1.55088915h.769462c.4328223 0 .7694619.33662694.7694619.769433v4.74884356c0 .2043814-.0841591.3967396-.2284332.5410083l-7.6705741 7.5560721c-.3125939.3065713-.78749663.300559-1.09407952 0l-1.55094603-1.5689216c.22843326-.1082023.44484444-.2464601.63720993-.4267952l7.68259772-7.55607214h.006011c.4328224-.43280606.6792903-1.02190397.6792903-1.64105747z" fill="#fff" transform=""/></svg>