<?xml version="1.0" encoding="UTF-8"?>
<svg width="20px" height="17px" viewBox="0 0 20 17" version="1.1" xmlns="http://www.w3.org/2000/svg" xmlns:xlink="http://www.w3.org/1999/xlink">
    <!-- Generator: Sketch 52.3 (67297) - http://www.bohemiancoding.com/sketch -->
    <title>icons8-stack_of_money</title>
    <desc>Created with Sketch.</desc>
    <g id="Page-1" stroke="none" stroke-width="1" fill="none" fill-rule="evenodd">
        <g id="DT-01-05-HomePage-Menu-WinDDF" transform="translate(-39.000000, -323.000000)" fill="#D40808" fill-rule="nonzero">
            <g id="icons8-stack_of_money" transform="translate(39.000000, 323.000000)">
                <path d="M2.15084225,0 C0.976991579,0 0.0101628677,0.959743167 0.0101628677,2.12499111 L0.0101628677,9.2082948 C0.0101628677,10.3735427 0.976991579,11.3332859 2.15084225,11.3332859 L17.8491577,11.3332859 C19.0230079,11.3332859 19.9898371,10.3735427 19.9898371,9.2082948 L19.9898371,2.12499111 C19.9898371,0.959743167 19.0230079,0 17.8491577,0 L2.15084225,0 Z M2.86440205,1.41666074 L17.135598,1.41666074 C17.135598,2.19091032 17.7827524,2.83332148 18.5627175,2.83332148 L18.5627175,8.49996443 C17.7827524,8.49996443 17.135598,9.14237559 17.135598,9.91662517 L2.86440205,9.91662517 C2.86440205,9.14237559 2.21724813,8.49996443 1.43728246,8.49996443 L1.43728246,2.83332148 C2.21724813,2.83332148 2.86440205,2.19091032 2.86440205,1.41666074 Z M10,2.83332148 C8.43209906,2.83332148 7.14576082,4.1102326 7.14576082,5.66664295 C7.14576082,7.22305331 8.43209906,8.49996443 10,8.49996443 C11.5679009,8.49996443 12.8542392,7.22305331 12.8542392,5.66664295 C12.8542392,4.1102326 11.5679009,2.83332148 10,2.83332148 Z M4.29152164,4.24998222 C3.50334525,4.24998222 2.86440205,4.88424283 2.86440205,5.66664295 C2.86440205,6.44904308 3.50334525,7.08330369 4.29152164,7.08330369 C5.07969802,7.08330369 5.71864123,6.44904308 5.71864123,5.66664295 C5.71864123,4.88424283 5.07969802,4.24998222 4.29152164,4.24998222 Z M10,4.24998222 C10.7966283,4.24998222 11.4271196,4.87585287 11.4271196,5.66664295 C11.4271196,6.45743304 10.7966283,7.08330369 10,7.08330369 C9.20337171,7.08330369 8.57288041,6.45743304 8.57288041,5.66664295 C8.57288041,4.87585287 9.20337171,4.24998222 10,4.24998222 Z M15.7084784,4.24998222 C14.920302,4.24998222 14.2813588,4.88424283 14.2813588,5.66664295 C14.2813588,6.44904308 14.920302,7.08330369 15.7084784,7.08330369 C16.4966547,7.08330369 17.135598,6.44904308 17.135598,5.66664295 C17.135598,4.88424283 16.4966547,4.24998222 15.7084784,4.24998222 Z M0.723722663,12.7499466 C0.466387372,12.746334 0.227026987,12.8805453 0.0972972801,13.1011884 C-0.0324324267,13.3218316 -0.0324324267,13.5947224 0.0972972801,13.8153656 C0.227026987,14.0360088 0.466387372,14.1702201 0.723722663,14.1666074 L19.2762773,14.1666074 C19.5336126,14.1702201 19.772973,14.0360088 19.9027027,13.8153656 C20.0324324,13.5947224 20.0324324,13.3218316 19.9027027,13.1011884 C19.772973,12.8805453 19.5336126,12.746334 19.2762773,12.7499466 L0.723722663,12.7499466 Z M0.723722663,15.5832681 C0.466387372,15.5796554 0.227026987,15.7138667 0.0972972801,15.9345099 C-0.0324324267,16.1551531 -0.0324324267,16.4280439 0.0972972801,16.6486871 C0.227026987,16.8693302 0.466387372,17.0035416 0.723722663,16.9999289 L19.2762773,16.9999289 C19.5336126,17.0035416 19.772973,16.8693302 19.9027027,16.6486871 C20.0324324,16.4280439 20.0324324,16.1551531 19.9027027,15.9345099 C19.772973,15.7138667 19.5336126,15.5796554 19.2762773,15.5832681 L0.723722663,15.5832681 Z" id="Shape"></path>
            </g>
        </g>
    </g>
</svg>