<svg height="20" viewBox="0 0 16 20" width="16" xmlns="http://www.w3.org/2000/svg"><path d="m8 0c-2.794408 0-5.05263158 2.28224723-5.05263158 5.10638298v2.12765957h-1.68421053c-.6924341 0-1.26315789.57679532-1.26315789 1.27659575v10.212766c0 .6998004.57072379 1.2765957 1.26315789 1.2765957h13.47368421c.6924341 0 1.2631579-.5767953 1.2631579-1.2765957v-10.212766c0-.69980043-.5707238-1.27659575-1.2631579-1.27659575h-1.6842105v-2.12765957c0-2.82413575-2.2582236-5.10638298-5.0526316-5.10638298zm0 .85106383c2.3437499 0 4.2105263 1.88663574 4.2105263 4.25531915v2.12765957h-8.42105262v-2.12765957c0-2.36868341 1.86677643-4.25531915 4.21052632-4.25531915zm-6.73684211 7.23404255h13.47368421c.2335528 0 .4210526.1894949.4210526.42553192v10.212766c0 .2360374-.1874998.4255319-.4210526.4255319h-13.47368421c-.23355242 0-.42105263-.1894945-.42105263-.4255319v-10.212766c0-.23603702.18750021-.42553192.42105263-.42553192zm6.73684211 3.40425532c-.71546063 0-1.26315789.5535238-1.26315789 1.2765957 0 .3823141.16776336.7180852.42105263.9308511v1.1968085c0 .4687502.37828968.8510639.84210526.8510639.463816 0 .84210526-.3823137.84210526-.8510639v-1.1968085c.25328969-.2127659.42105263-.548537.42105263-.9308511 0-.7230719-.54769726-1.2765957-1.26315789-1.2765957z" fill="#fff" transform=""/></svg>