<?xml version="1.0" encoding="UTF-8"?>
<svg width="20px" height="20px" viewBox="0 0 20 20" version="1.1" xmlns="http://www.w3.org/2000/svg" xmlns:xlink="http://www.w3.org/1999/xlink">
    <!-- Generator: Sketch 52.3 (67297) - http://www.bohemiancoding.com/sketch -->
    <title>icons8-tags</title>
    <desc>Created with Sketch.</desc>
    <g id="Page-1" stroke="none" stroke-width="1" fill="none" fill-rule="evenodd">
        <g id="DT-01-04-HomePage-MenuBrands" transform="translate(-39.000000, -221.000000)" fill="#D40808" fill-rule="nonzero">
            <g id="icons8-tags" transform="translate(39.000000, 221.000000)">
                <path d="M9.85272017,0 C9.23354335,0 8.64442479,0.246458622 8.21761347,0.685277033 L0.667267809,8.30747266 C-0.222422603,9.20314038 -0.222422603,10.669872 0.667267809,11.5655397 L5.29606329,16.2362381 C5.33213105,16.272306 5.37421139,16.2963508 5.41629172,16.3324172 L8.37992224,19.3320041 L8.38593327,19.3320041 C9.27562369,20.221661 10.7424106,20.221661 11.638112,19.3380149 L11.6441246,19.3320041 L19.3146987,11.7819428 L19.3207097,11.7819428 C19.7595431,11.3491367 20,10.7600403 20,10.1468977 L20,5.39805414 C20,4.13570236 18.9600244,3.08975515 17.6916141,3.08975515 L16.9221521,3.08975515 L16.9221521,2.30829899 C16.9221521,1.0399364 15.8821765,0 14.6137662,0 L9.85272017,0 Z M9.85272017,1.53886599 L14.6137662,1.53886599 C15.0465885,1.53886599 15.3832281,1.87549293 15.3832281,2.30829899 L15.3832281,7.05113169 C15.3832281,7.2555131 15.299069,7.45388216 15.1547949,7.59815085 L7.47219717,15.1482121 C7.18364893,15.4367495 6.76285018,15.4427603 6.45626729,15.1963017 L4.84520628,13.5732797 L4.83318266,13.5853014 L1.76134733,10.4775138 C1.45476444,10.1709424 1.4487534,9.69605762 1.75533475,9.38948782 L9.31169298,1.76729219 C9.44995453,1.6230235 9.6483326,1.53886599 9.85272017,1.53886599 Z M13.0147288,3.07773199 C12.5879174,3.07773199 12.2452668,3.42036974 12.2452668,3.84716499 C12.2452668,4.27396024 12.5879174,4.61659798 13.0147288,4.61659798 C13.4415385,4.61659798 13.7841907,4.27396024 13.7841907,3.84716499 C13.7841907,3.42036974 13.4415385,3.07773199 13.0147288,3.07773199 Z M16.9221521,4.62862114 L17.6916141,4.62862114 C18.1244364,4.62862114 18.461076,4.96524808 18.461076,5.39805414 L18.461076,10.1468977 C18.461076,10.3512791 18.3769169,10.5436373 18.2326428,10.687906 L10.5620687,18.2439781 C10.2494748,18.5505494 9.77457207,18.5445371 9.46798918,18.2439781 L7.91704315,16.6750565 C8.14547641,16.5668542 8.36188759,16.4285964 8.55425308,16.2482613 L16.2368508,8.69218916 L16.2428618,8.69218916 C16.6756842,8.2593831 16.9221521,7.67028519 16.9221521,7.05113169 L16.9221521,4.62862114 Z" id="Shape"></path>
            </g>
        </g>
    </g>
</svg>