<svg height="17" viewBox="0 0 20 17" width="20" xmlns="http://www.w3.org/2000/svg"><path d="m2.15084225 0c-1.17385067 0-2.14067938.95974317-2.14067938 2.12499111v7.08330369c0 1.1652479.96682871 2.1249911 2.14067938 2.1249911h15.69831545c1.1738502 0 2.1406794-.9597432 2.1406794-2.1249911v-7.08330369c0-1.16524794-.9668292-2.12499111-2.1406794-2.12499111zm.7135598 1.41666074h14.27119595c0 .77424958.6471544 1.41666074 1.4271195 1.41666074v5.66664295c-.7799651 0-1.4271195.64241116-1.4271195 1.41666074h-14.27119595c0-.77424958-.64715392-1.41666074-1.42711959-1.41666074v-5.66664295c.77996567 0 1.42711959-.64241116 1.42711959-1.41666074zm7.13559795 1.41666074c-1.56790094 0-2.85423918 1.27691112-2.85423918 2.83332147 0 1.55641036 1.28633824 2.83332148 2.85423918 2.83332148 1.5679009 0 2.8542392-1.27691112 2.8542392-2.83332148 0-1.55641035-1.2863383-2.83332147-2.8542392-2.83332147zm-5.70847836 1.41666074c-.78817639 0-1.42711959.63426061-1.42711959 1.41666073 0 .78240013.6389432 1.41666074 1.42711959 1.41666074.78817638 0 1.42711959-.63426061 1.42711959-1.41666074 0-.78240012-.63894321-1.41666073-1.42711959-1.41666073zm5.70847836 0c.7966283 0 1.4271196.62587065 1.4271196 1.41666073 0 .79079009-.6304913 1.41666074-1.4271196 1.41666074-.79662829 0-1.42711959-.62587065-1.42711959-1.41666074 0-.79079008.6304913-1.41666073 1.42711959-1.41666073zm5.7084784 0c-.7881764 0-1.4271196.63426061-1.4271196 1.41666073 0 .78240013.6389432 1.41666074 1.4271196 1.41666074.7881763 0 1.4271196-.63426061 1.4271196-1.41666074 0-.78240012-.6389433-1.41666073-1.4271196-1.41666073zm-14.98475574 8.49996438c-.25733529-.0036126-.49669567.1305987-.62642538.3512418-.12972971.2206432-.12972971.493534 0 .7141772s.36909009.3548545.62642538.3512418h18.55255464c.2573353.0036127.4966957-.1305986.6264254-.3512418s.1297297-.493534 0-.7141772c-.1297297-.2206431-.3690901-.3548544-.6264254-.3512418zm0 2.8333215c-.25733529-.0036127-.49669567.1305986-.62642538.3512418s-.12972971.493534 0 .7141772c.12972971.2206431.36909009.3548545.62642538.3512418h18.55255464c.2573353.0036127.4966957-.1305987.6264254-.3512418.1297297-.2206432.1297297-.493534 0-.7141772s-.3690901-.3548545-.6264254-.3512418z" fill="#fff" transform=""/></svg>