<?xml version="1.0" encoding="UTF-8"?>
<svg width="26px" height="26px" viewBox="0 0 26 26" version="1.1" xmlns="http://www.w3.org/2000/svg" xmlns:xlink="http://www.w3.org/1999/xlink">
    <!-- Generator: Sketch 52.1 (67048) - http://www.bohemiancoding.com/sketch -->
    <title>icons8-dashboard</title>
    <desc>Created with Sketch.</desc>
    <g id="Page-1" stroke="none" stroke-width="1" fill="none" fill-rule="evenodd">
        <g id="DT-03-01-MyAccount" transform="translate(-254.000000, -179.000000)" fill="#000000" fill-rule="nonzero">
            <g id="icons8-dashboard" transform="translate(254.000000, 179.000000)">
                <path d="M13,0 C5.85256891,0 0,5.85256891 0,13 C0,20.1474311 5.85256891,26 13,26 C20.1474311,26 26,20.1474311 26,13 C26,5.85256891 20.1474311,0 13,0 Z M13,1.13043478 C19.5308298,1.13043478 24.8695652,6.46917022 24.8695652,13 C24.8695652,19.5308298 19.5308298,24.8695652 13,24.8695652 C6.46917022,24.8695652 1.13043478,19.5308298 1.13043478,13 C1.13043478,6.46917022 6.46917022,1.13043478 13,1.13043478 Z M12.9911685,2.19242524 C12.8412624,2.19476422 12.6984257,2.25655904 12.5940824,2.36421482 C12.4897391,2.4718706 12.432437,2.61656822 12.4347826,2.76647416 L12.4347826,3.93002717 C12.4318998,4.13386487 12.5389947,4.32346447 12.7150586,4.42622458 C12.8911224,4.5289847 13.1088776,4.5289847 13.2849414,4.42622458 C13.4610053,4.32346447 13.5681002,4.13386487 13.5652174,3.93002717 L13.5652174,2.76647416 C13.567611,2.61350569 13.5079,2.46609923 13.3997217,2.35792095 C13.2915434,2.24974266 13.1441369,2.19003163 12.9911685,2.19242524 Z M7.8523267,3.56131111 C7.65310036,3.57231935 7.47443492,3.68754398 7.38222419,3.86448888 C7.29001346,4.04143378 7.29791816,4.25388511 7.40302296,4.42348847 L8.01019022,5.43580191 C8.11276424,5.61176848 8.30207306,5.71894597 8.50573689,5.71635646 C8.70940073,5.71376694 8.89592334,5.60181089 8.99399023,5.42329325 C9.09205711,5.2447756 9.0865024,5.02730379 8.97944987,4.85402535 L8.37228261,3.84171196 C8.26547615,3.65791189 8.06458203,3.54957409 7.8523267,3.56131111 Z M18.1311141,3.56131111 C17.9246958,3.55581841 17.7317069,3.66331662 17.6277174,3.84171196 L17.0205501,4.85402535 C16.9134976,5.02730379 16.9079429,5.2447756 17.0060098,5.42329325 C17.1040767,5.60181089 17.2905993,5.71376694 17.4942631,5.71635646 C17.6979269,5.71894597 17.8872358,5.61176848 17.9898098,5.43580191 L18.596977,4.42348847 C18.7032922,4.25140402 18.7095536,4.0356273 18.6133961,3.85766749 C18.5172385,3.67970769 18.3333195,3.56669171 18.1311141,3.56131111 Z M4.15964674,7.25951087 C3.90949859,7.27153984 3.69708381,7.44672872 3.63766485,7.69001493 C3.57824588,7.93330114 3.6859886,8.18668363 3.90242868,8.3126697 L4.91474157,8.91983696 C5.08820686,9.03198879 5.30903361,9.0405927 5.49069917,8.94227756 C5.67236473,8.84396243 5.78593834,8.65438521 5.78692044,8.44782462 C5.78790254,8.24126403 5.67613674,8.05061543 5.49541426,7.9505773 L4.48310121,7.34341061 C4.38620176,7.28348682 4.27345625,7.25424215 4.15964674,7.25951087 Z M21.4937162,7.34782609 C21.4190924,7.34578144 21.3448028,7.3585382 21.2751359,7.38535991 L12.2382814,10.8682917 C12.131051,10.9097507 12.0390111,10.9829203 11.9744396,11.0780399 C11.2658633,11.4551851 10.7391304,12.1377937 10.7391304,13 C10.7391304,14.2490197 11.7509803,15.2608696 13,15.2608696 C13.3905036,15.2608696 13.711104,15.0805313 14.028872,14.9109203 C14.1712392,14.9163852 14.3104194,14.8678891 14.4185634,14.7751359 L21.8480809,8.34026813 C22.0243909,8.18764315 22.0888826,7.94241425 22.0104663,7.72279987 C21.9320501,7.50318549 21.7268216,7.35426382 21.4937162,7.34782609 Z M18.6621093,9.60428017 L13.7451594,13.8632814 C13.7295813,13.8728468 13.7144764,13.8831623 13.699898,13.8941914 C13.5076308,14.042674 13.2770074,14.1304348 13,14.1304348 C12.3272805,14.1304348 11.8695652,13.6727195 11.8695652,13 C11.8695652,12.4670526 12.1693967,12.0866692 12.6213484,11.9369058 C12.6510425,11.9268049 12.6798445,11.9142501 12.7074559,11.8993714 L18.6621093,9.60428017 Z M2.82608696,12.3751697 C2.62224926,12.3722869 2.43264966,12.4793818 2.32988955,12.6554457 C2.22712943,12.8315095 2.22712943,13.0492647 2.32988955,13.2253285 C2.43264966,13.4013924 2.62224926,13.5084873 2.82608696,13.5056045 L3.9907439,13.5056045 C4.19458159,13.5084873 4.38418119,13.4013924 4.48694131,13.2253285 C4.58970142,13.0492647 4.58970142,12.8315095 4.48694131,12.6554457 C4.38418119,12.4793818 4.19458159,12.3722869 3.9907439,12.3751697 L2.82608696,12.3751697 Z M22.009256,12.3751697 C21.8054184,12.3722869 21.6158188,12.4793818 21.5130586,12.6554457 C21.4102985,12.8315095 21.4102985,13.0492647 21.5130586,13.2253285 C21.6158188,13.4013924 21.8054184,13.5084873 22.009256,13.5056045 L23.173913,13.5056045 C23.3777507,13.5084873 23.5673503,13.4013924 23.6701105,13.2253285 C23.7728706,13.0492647 23.7728706,12.8315095 23.6701105,12.6554457 C23.5673503,12.4793818 23.3777507,12.3722869 23.173913,12.3751697 L22.009256,12.3751697 Z M5.22053322,16.8759342 C5.1126857,16.8741531 5.00657994,16.903265 4.91474157,16.9598333 L3.90242868,17.5681045 C3.72646167,17.6706783 3.61928376,17.8599872 3.62187313,18.0636513 C3.6244625,18.2673154 3.73641871,18.4538383 3.91493666,18.5519052 C4.0934546,18.6499721 4.31092673,18.6444171 4.48420519,18.5373641 L5.49651813,17.929093 C5.71536696,17.8011129 5.82224063,17.5430781 5.75797396,17.2978364 C5.69370729,17.0525947 5.47402098,16.8801363 5.22053322,16.8759342 Z M20.7629076,16.8759342 C20.5123737,16.8870723 20.299129,17.0619449 20.2391468,17.3054473 C20.1791646,17.5489497 20.2867864,17.8028617 20.5034819,17.929093 L21.5157947,18.5373641 C21.6890731,18.6444167 21.9065449,18.6499714 22.0850626,18.5519045 C22.2635802,18.4538376 22.3755363,18.267315 22.3781258,18.0636512 C22.3807153,17.8599873 22.2735378,17.6706785 22.0975713,17.5681045 L21.0852584,16.9598333 C20.9886737,16.9001254 20.8763457,16.8708895 20.7629076,16.8759342 Z" id="Shape"></path>
            </g>
        </g>
    </g>
</svg>