<?xml version="1.0" encoding="UTF-8"?>
<svg width="24px" height="25px" viewBox="0 0 24 25" version="1.1" xmlns="http://www.w3.org/2000/svg" xmlns:xlink="http://www.w3.org/1999/xlink">
    <!-- Generator: Sketch 52.2 (67145) - http://www.bohemiancoding.com/sketch -->
    <title>Shape Copy</title>
    <desc>Created with Sketch.</desc>
    <g id="Page-1" stroke="none" stroke-width="1" fill="none" fill-rule="evenodd">
        <g id="DT-01-02-HomePage-CorporateBanner" transform="translate(-1115.000000, -511.000000)" fill="#000000" fill-rule="nonzero">
            <path d="M1124.5091,511 C1119.26293,511 1115,515.339413 1115,520.679715 C1115,526.020018 1119.26293,530.359431 1124.5091,530.359431 C1126.58485,530.359431 1128.50328,529.678826 1130.06773,528.52669 L1137.4268,536 L1139,534.398577 L1131.72833,526.978648 C1133.15732,525.283808 1134.01821,523.084075 1134.01821,520.679715 C1134.01821,515.339413 1129.75528,511 1124.5091,511 Z M1124.5091,512.13879 C1129.15004,512.13879 1132.89949,515.955516 1132.89949,520.679715 C1132.89949,525.403915 1129.15004,529.220641 1124.5091,529.220641 C1119.86817,529.220641 1116.11872,525.403915 1116.11872,520.679715 C1116.11872,515.955516 1119.86817,512.13879 1124.5091,512.13879 Z" id="Shape-Copy"></path>
        </g>
    </g>
</svg>