<?xml version="1.0" encoding="UTF-8"?>
<svg width="16px" height="20px" viewBox="0 0 16 20" version="1.1" xmlns="http://www.w3.org/2000/svg" xmlns:xlink="http://www.w3.org/1999/xlink">
    <!-- Generator: Sketch 54.1 (76490) - https://sketchapp.com -->
    <title>icons8-lock-black</title>
    <desc>Created with Sketch.</desc>
    <g id="DDF-Consolidated-v4-2" stroke="none" stroke-width="1" fill="none" fill-rule="evenodd">
        <g id="UI-Elements" transform="translate(-3938.000000, -2927.000000)" fill="#000000" fill-rule="nonzero">
            <g id="icons8-lock-black" transform="translate(3938.000000, 2927.000000)">
                <path d="M8,0 C5.205592,0 2.94736842,2.28224723 2.94736842,5.10638298 L2.94736842,7.23404255 L1.26315789,7.23404255 C0.570723789,7.23404255 0,7.81083787 0,8.5106383 L0,18.7234043 C0,19.4232047 0.570723789,20 1.26315789,20 L14.7368421,20 C15.4292762,20 16,19.4232047 16,18.7234043 L16,8.5106383 C16,7.81083787 15.4292762,7.23404255 14.7368421,7.23404255 L13.0526316,7.23404255 L13.0526316,5.10638298 C13.0526316,2.28224723 10.794408,0 8,0 Z M8,0.85106383 C10.3437499,0.85106383 12.2105263,2.73769957 12.2105263,5.10638298 L12.2105263,7.23404255 L3.78947368,7.23404255 L3.78947368,5.10638298 C3.78947368,2.73769957 5.65625011,0.85106383 8,0.85106383 Z M1.26315789,8.08510638 L14.7368421,8.08510638 C14.9703949,8.08510638 15.1578947,8.27460128 15.1578947,8.5106383 L15.1578947,18.7234043 C15.1578947,18.9594417 14.9703949,19.1489362 14.7368421,19.1489362 L1.26315789,19.1489362 C1.02960547,19.1489362 0.842105263,18.9594417 0.842105263,18.7234043 L0.842105263,8.5106383 C0.842105263,8.27460128 1.02960547,8.08510638 1.26315789,8.08510638 Z M8,11.4893617 C7.28453937,11.4893617 6.73684211,12.0428855 6.73684211,12.7659574 C6.73684211,13.1482715 6.90460547,13.4840426 7.15789474,13.6968085 L7.15789474,14.893617 C7.15789474,15.3623672 7.53618442,15.7446809 8,15.7446809 C8.463816,15.7446809 8.84210526,15.3623672 8.84210526,14.893617 L8.84210526,13.6968085 C9.09539495,13.4840426 9.26315789,13.1482715 9.26315789,12.7659574 C9.26315789,12.0428855 8.71546063,11.4893617 8,11.4893617 Z" id="Shape"></path>
            </g>
        </g>
    </g>
</svg>