<?xml version="1.0" encoding="UTF-8"?>
<svg width="29px" height="25px" viewBox="0 0 29 25" version="1.1" xmlns="http://www.w3.org/2000/svg" xmlns:xlink="http://www.w3.org/1999/xlink">
    <!-- Generator: Sketch 52.1 (67048) - http://www.bohemiancoding.com/sketch -->
    <title>icons8-like</title>
    <desc>Created with Sketch.</desc>
    <g id="Page-1" stroke="none" stroke-width="1" fill="none" fill-rule="evenodd">
        <g id="DT-03-01-MyAccount" transform="translate(-948.000000, -180.000000)" fill="#9B9B9B" fill-rule="nonzero">
            <g id="icons8-like" transform="translate(948.000000, 180.000000)">
                <path d="M7.76785714,0 C3.48339818,0 0,3.53031803 0,7.78210117 C0,9.26556472 0.6715965,10.5504218 1.29464286,11.4785992 C1.91769025,12.4067767 2.55691964,13.002594 2.55691964,13.002594 L13.7555804,24.2542153 L14.5,25 L15.2444196,24.2542153 L26.4430804,13.002594 C26.4430804,13.002594 29,10.7449743 29,7.78210117 C29,3.53031803 25.5166018,0 21.2321429,0 C17.6759205,0 15.3860215,2.14413074 14.5,3.04798962 C13.6139785,2.14413074 11.3240795,0 7.76785714,0 Z M7.76785714,2.07522698 C10.8628625,2.07522698 13.7232143,5.09079118 13.7232143,5.09079118 L14.5,5.96627756 L15.2767857,5.09079118 C15.2767857,5.09079118 18.1371375,2.07522698 21.2321429,2.07522698 C24.3837893,2.07522698 26.9285714,4.66520778 26.9285714,7.78210117 C26.9285714,9.38310661 24.9866071,11.5434501 24.9866071,11.5434501 L14.5,22.0492866 L4.01339286,11.5434501 C4.01339286,11.5434501 3.51171875,11.0611217 3.01004464,10.311284 C2.50837054,9.56144643 2.07142857,8.58463087 2.07142857,7.78210117 C2.07142857,4.66520778 4.61621068,2.07522698 7.76785714,2.07522698 Z" id="Shape"></path>
            </g>
        </g>
    </g>
</svg>